<?xml version="1.0" encoding="utf-8"?>
<!-- Generator: Adobe Illustrator 22.0.0, SVG Export Plug-In . SVG Version: 6.00 Build 0)  -->
<svg version="1.1" xmlns="http://www.w3.org/2000/svg" xmlns:xlink="http://www.w3.org/1999/xlink" x="0px" y="0px"
	 viewBox="0 200 1200 800" style="enable-background:new 0 0 1200 1200;" xml:space="preserve">
<style type="text/css">
	.st0{fill:#FBDD11;}
</style>
<g id="right">
</g>
<g id="left">
	<g>
		<path class="st0" d="M787.4,887.4c-20.6-1.9-42-1.8-63.2-4c-33.5-3.5-66.6-9.1-98.8-19.3c-70.6-22.4-130.8-60.9-180.6-115.8
			c-28.8-31.8-53.3-66.6-73.2-104.6c-5-9.5-9-19.5-10.4-30.4c-1.5-12,2.1-21.5,12.1-28.5c9-6.3,19.4-9,30.1-10.9
			c10.9-1.9,22-2.7,33-2.9c11.7-0.3,23.4,1.5,35,3.3c35.1,5.5,67.3,19.4,99,34.7c35.2,17,71,33.1,104.7,53.1
			c15.2,9,29.8,18.7,43.9,29.3c9.6,7.2,20.4,11.4,32.7,10.8c7.8-0.4,15.2-2.8,22.1-6.2c24.2-12,46.6-27,68.3-42.9
			c41.1-30,74.8-66.8,103.3-109c25.1-37.3,60-61.2,104.2-70.6c19.9-4.2,40-6.1,60.3-3c17.5,2.7,28.5,11.9,32.4,27.6
			c1.8,7.1,1.2,14.3,0.3,21.4c-3.9,29.7-10.3,58.9-19.9,87.3c-24.7,73.9-65.7,137.4-122.6,190.6c-28.7,26.8-60.2,49.3-96.2,65.2
			c-23.5,10.4-47.9,17.6-73.3,21.2C816.6,885.9,802.4,886.6,787.4,887.4z"/>
		<path class="st0" d="M56.3,696.5c0-5.6,0-11.3,0-16.9c1.5-17.9,4.6-35.6,9.2-53c18.9-71.1,52.8-134.3,100.9-189.9
			c32.2-37.2,69.5-68.1,113.3-90.9c26.6-13.8,54.6-23.8,84.1-29.1c27.1-4.9,54.4-4.6,81.8-3.7c16.5,0.5,33,2.1,49.3,4.4
			c40.2,5.6,79.4,15.2,116.7,31.5c38.7,16.9,74.7,38.2,106.3,66.5c32.7,29.3,61.3,62,85.2,98.9c10.8,16.6,21,33.3,28.9,51.5
			c3.2,7.4,5.3,15.1,6.1,23.1c1,10.1-2.2,18.6-10.9,24.6c-8.7,6-18.6,8.2-28.8,10c-23.8,4.1-47.9,3.5-71.8,2.3
			c-16.2-0.8-31.2-6.4-45.8-12.9c-47.8-21.2-95.3-43.1-141.5-67.8c-18.7-10-36.3-21.9-53.9-33.6c-8.5-5.6-16.9-11.7-27.2-13.8
			c-11.2-2.3-21.6,0.1-31.8,4.6c-19.4,8.6-36.7,20.5-54,32.6c-26.4,18.3-51.3,38.3-73.3,61.8c-17.2,18.4-32.3,38.4-46.5,59.1
			c-23.8,34.5-55.5,57.8-96.3,68.3c-22,5.7-44.4,7.2-67,4.4C70.7,726.3,57.7,713.5,56.3,696.5z"/>
	</g>
</g>
</svg>
